<svg width="70" height="40" viewBox="0 0 70 40" fill="none" xmlns="http://www.w3.org/2000/svg">
<path fill-rule="evenodd" clip-rule="evenodd" d="M40 20C40 31.0457 31.0457 40 20 40C8.95431 40 0 31.0457 0 20C0 8.95431 8.95431 0 20 0C31.0457 0 40 8.95431 40 20ZM30 20C30 25.5228 25.5228 30 20 30C14.4772 30 10 25.5228 10 20C10 14.4772 14.4772 10 20 10C25.5228 10 30 14.4772 30 20Z" fill="#FA7D61" fill-opacity="0.25"/>
<path fill-rule="evenodd" clip-rule="evenodd" d="M70 20C70 31.0457 61.0457 40 50 40C38.9543 40 30 31.0457 30 20C30 8.95431 38.9543 0 50 0C61.0457 0 70 8.95431 70 20ZM60 20C60 25.5228 55.5228 30 50 30C44.4772 30 40 25.5228 40 20C40 14.4772 44.4772 10 50 10C55.5228 10 60 14.4772 60 20Z" fill="#6347FB" fill-opacity="0.5"/>
<path d="M35 33.2291C38.1118 29.7035 40 25.0722 40 20C40 14.9278 38.1118 10.2965 35 6.77088C31.8882 10.2965 30 14.9278 30 20C30 25.0722 31.8882 29.7035 35 33.2291Z" fill="#6347FB"/>
</svg>
