<svg width="169" height="40" viewBox="0 0 169 40" fill="none" xmlns="http://www.w3.org/2000/svg">
<path fill-rule="evenodd" clip-rule="evenodd" d="M40 20C40 31.0457 31.0457 40 20 40C8.95431 40 0 31.0457 0 20C0 8.95431 8.95431 0 20 0C31.0457 0 40 8.95431 40 20ZM30 20C30 25.5228 25.5228 30 20 30C14.4772 30 10 25.5228 10 20C10 14.4772 14.4772 10 20 10C25.5228 10 30 14.4772 30 20Z" fill="#FA7D61" fill-opacity="0.25"/>
<path fill-rule="evenodd" clip-rule="evenodd" d="M70 20C70 31.0457 61.0457 40 50 40C38.9543 40 30 31.0457 30 20C30 8.95431 38.9543 0 50 0C61.0457 0 70 8.95431 70 20ZM60 20C60 25.5228 55.5228 30 50 30C44.4772 30 40 25.5228 40 20C40 14.4772 44.4772 10 50 10C55.5228 10 60 14.4772 60 20Z" fill="#6347FB" fill-opacity="0.5"/>
<path d="M35 33.2291C38.1118 29.7035 40 25.0722 40 20C40 14.9278 38.1118 10.2965 35 6.77088C31.8882 10.2965 30 14.9278 30 20C30 25.0722 31.8882 29.7035 35 33.2291Z" fill="#6347FB"/>
<path d="M84.176 22.6C84.272 23.528 84.584 24.224 85.112 24.688C85.656 25.136 86.296 25.36 87.032 25.36C87.752 25.36 88.288 25.256 88.64 25.048C88.992 24.84 89.32 24.512 89.624 24.064C89.752 23.856 89.872 23.696 89.984 23.584C90.112 23.472 90.256 23.416 90.416 23.416H92.24C92.416 23.416 92.568 23.48 92.696 23.608C92.84 23.736 92.904 23.888 92.888 24.064C92.856 24.592 92.624 25.184 92.192 25.84C91.76 26.496 91.104 27.064 90.224 27.544C89.36 28.008 88.296 28.24 87.032 28.24C85.896 28.24 84.888 27.992 84.008 27.496C83.144 27 82.456 26.336 81.944 25.504C81.432 24.656 81.136 23.736 81.056 22.744C81.04 22.552 81.032 22.232 81.032 21.784C81.032 21.32 81.04 20.992 81.056 20.8C81.136 19.808 81.424 18.896 81.92 18.064C82.432 17.216 83.128 16.544 84.008 16.048C84.888 15.536 85.896 15.28 87.032 15.28C88.296 15.28 89.36 15.52 90.224 16C91.104 16.464 91.76 17.024 92.192 17.68C92.624 18.336 92.856 18.928 92.888 19.456C92.904 19.632 92.84 19.784 92.696 19.912C92.568 20.04 92.416 20.104 92.24 20.104H90.416C90.256 20.104 90.112 20.048 89.984 19.936C89.872 19.824 89.752 19.664 89.624 19.456C89.32 19.008 88.992 18.68 88.64 18.472C88.288 18.264 87.752 18.16 87.032 18.16C86.296 18.16 85.656 18.392 85.112 18.856C84.584 19.304 84.272 19.992 84.176 20.92C84.16 21.08 84.152 21.36 84.152 21.76C84.152 22.16 84.16 22.44 84.176 22.6Z" fill="#090B27"/>
<path d="M98.0995 10.96C98.2755 10.96 98.4275 11.024 98.5555 11.152C98.6835 11.28 98.7475 11.432 98.7475 11.608V13.48C98.7475 13.656 98.6835 13.808 98.5555 13.936C98.4275 14.064 98.2755 14.128 98.0995 14.128H96.0355C95.8595 14.128 95.7075 14.064 95.5795 13.936C95.4515 13.808 95.3875 13.656 95.3875 13.48V11.608C95.3875 11.432 95.4515 11.28 95.5795 11.152C95.7075 11.024 95.8595 10.96 96.0355 10.96H98.0995ZM98.6275 27.352C98.6275 27.528 98.5635 27.68 98.4355 27.808C98.3075 27.936 98.1555 28 97.9795 28H96.1555C95.9795 28 95.8275 27.936 95.6995 27.808C95.5715 27.68 95.5075 27.528 95.5075 27.352V16.168C95.5075 15.992 95.5715 15.84 95.6995 15.712C95.8275 15.584 95.9795 15.52 96.1555 15.52H97.9795C98.1555 15.52 98.3075 15.584 98.4355 15.712C98.5635 15.84 98.6275 15.992 98.6275 16.168V27.352Z" fill="#090B27"/>
<path d="M107.761 18.4C106.801 18.4 106.105 18.616 105.673 19.048C105.257 19.464 105.049 20.152 105.049 21.112V27.352C105.049 27.528 104.985 27.68 104.857 27.808C104.729 27.936 104.577 28 104.401 28H102.577C102.401 28 102.249 27.936 102.121 27.808C101.993 27.68 101.929 27.528 101.929 27.352V16.168C101.929 15.992 101.993 15.84 102.121 15.712C102.249 15.584 102.401 15.52 102.577 15.52H104.401C104.577 15.52 104.729 15.584 104.857 15.712C104.985 15.84 105.049 15.992 105.049 16.168V16.72C105.481 16.304 105.937 16 106.417 15.808C106.897 15.616 107.505 15.52 108.241 15.52H109.321C109.497 15.52 109.649 15.584 109.777 15.712C109.905 15.84 109.969 15.992 109.969 16.168V17.752C109.969 17.928 109.905 18.08 109.777 18.208C109.649 18.336 109.497 18.4 109.321 18.4H107.761Z" fill="#090B27"/>
<path d="M114.293 22.6C114.389 23.528 114.701 24.224 115.229 24.688C115.773 25.136 116.413 25.36 117.149 25.36C117.869 25.36 118.405 25.256 118.757 25.048C119.109 24.84 119.437 24.512 119.741 24.064C119.869 23.856 119.989 23.696 120.101 23.584C120.229 23.472 120.373 23.416 120.533 23.416H122.357C122.533 23.416 122.685 23.48 122.813 23.608C122.957 23.736 123.021 23.888 123.005 24.064C122.973 24.592 122.741 25.184 122.309 25.84C121.877 26.496 121.221 27.064 120.341 27.544C119.477 28.008 118.413 28.24 117.149 28.24C116.013 28.24 115.005 27.992 114.125 27.496C113.261 27 112.573 26.336 112.061 25.504C111.549 24.656 111.253 23.736 111.173 22.744C111.157 22.552 111.149 22.232 111.149 21.784C111.149 21.32 111.157 20.992 111.173 20.8C111.253 19.808 111.541 18.896 112.037 18.064C112.549 17.216 113.245 16.544 114.125 16.048C115.005 15.536 116.013 15.28 117.149 15.28C118.413 15.28 119.477 15.52 120.341 16C121.221 16.464 121.877 17.024 122.309 17.68C122.741 18.336 122.973 18.928 123.005 19.456C123.021 19.632 122.957 19.784 122.813 19.912C122.685 20.04 122.533 20.104 122.357 20.104H120.533C120.373 20.104 120.229 20.048 120.101 19.936C119.989 19.824 119.869 19.664 119.741 19.456C119.437 19.008 119.109 18.68 118.757 18.472C118.405 18.264 117.869 18.16 117.149 18.16C116.413 18.16 115.773 18.392 115.229 18.856C114.701 19.304 114.389 19.992 114.293 20.92C114.277 21.08 114.269 21.36 114.269 21.76C114.269 22.16 114.277 22.44 114.293 22.6Z" fill="#090B27"/>
<path d="M125.505 16.168C125.505 15.992 125.569 15.84 125.697 15.712C125.825 15.584 125.977 15.52 126.153 15.52H127.977C128.153 15.52 128.305 15.584 128.433 15.712C128.561 15.84 128.625 15.992 128.625 16.168V22.264C128.625 23.272 128.833 24.056 129.249 24.616C129.681 25.16 130.345 25.432 131.241 25.432C132.073 25.432 132.713 25.152 133.161 24.592C133.625 24.016 133.857 23.24 133.857 22.264V16.168C133.857 15.992 133.921 15.84 134.049 15.712C134.177 15.584 134.329 15.52 134.505 15.52H136.329C136.505 15.52 136.657 15.584 136.785 15.712C136.913 15.84 136.977 15.992 136.977 16.168V27.352C136.977 27.528 136.913 27.68 136.785 27.808C136.657 27.936 136.505 28 136.329 28H134.505C134.329 28 134.177 27.936 134.049 27.808C133.921 27.68 133.857 27.528 133.857 27.352V26.8C132.929 27.76 131.817 28.24 130.521 28.24C128.713 28.24 127.425 27.728 126.657 26.704C125.889 25.664 125.505 24.304 125.505 22.624V16.168Z" fill="#090B27"/>
<path d="M143.417 27.352C143.417 27.528 143.353 27.68 143.225 27.808C143.097 27.936 142.945 28 142.769 28H140.945C140.769 28 140.617 27.936 140.489 27.808C140.361 27.68 140.297 27.528 140.297 27.352V11.608C140.297 11.432 140.361 11.28 140.489 11.152C140.617 11.024 140.769 10.96 140.945 10.96H142.769C142.945 10.96 143.097 11.024 143.225 11.152C143.353 11.28 143.417 11.432 143.417 11.608V27.352Z" fill="#090B27"/>
<path d="M151.854 15.28C153.502 15.28 154.806 15.712 155.766 16.576C156.742 17.44 157.23 18.68 157.23 20.296V27.352C157.23 27.528 157.166 27.68 157.038 27.808C156.91 27.936 156.758 28 156.582 28H154.758C154.582 28 154.43 27.936 154.302 27.808C154.174 27.68 154.11 27.528 154.11 27.352V26.56C153.742 27.072 153.23 27.48 152.574 27.784C151.934 28.088 151.158 28.24 150.246 28.24C148.902 28.24 147.838 27.896 147.054 27.208C146.27 26.504 145.878 25.6 145.878 24.496C145.878 23.424 146.254 22.576 147.006 21.952C147.774 21.312 148.838 20.872 150.198 20.632L154.11 19.96C154.11 19.352 153.902 18.904 153.486 18.616C153.086 18.312 152.542 18.16 151.854 18.16C151.486 18.16 151.182 18.216 150.942 18.328C150.718 18.424 150.494 18.576 150.27 18.784C150.03 19.008 149.766 19.12 149.478 19.12H147.246C147.086 19.12 146.95 19.072 146.838 18.976C146.742 18.864 146.702 18.736 146.718 18.592C146.814 18.096 147.062 17.592 147.462 17.08C147.878 16.568 148.454 16.144 149.19 15.808C149.942 15.456 150.83 15.28 151.854 15.28ZM154.11 22.432L150.846 23.008C150.206 23.12 149.734 23.288 149.43 23.512C149.142 23.72 148.998 24.008 148.998 24.376C148.998 24.696 149.158 24.944 149.478 25.12C149.814 25.28 150.23 25.36 150.726 25.36C151.43 25.36 152.038 25.232 152.55 24.976C153.062 24.72 153.446 24.392 153.702 23.992C153.974 23.576 154.11 23.136 154.11 22.672V22.432Z" fill="#090B27"/>
<path d="M166.261 18.4C165.301 18.4 164.605 18.616 164.173 19.048C163.757 19.464 163.549 20.152 163.549 21.112V27.352C163.549 27.528 163.485 27.68 163.357 27.808C163.229 27.936 163.077 28 162.901 28H161.077C160.901 28 160.749 27.936 160.621 27.808C160.493 27.68 160.429 27.528 160.429 27.352V16.168C160.429 15.992 160.493 15.84 160.621 15.712C160.749 15.584 160.901 15.52 161.077 15.52H162.901C163.077 15.52 163.229 15.584 163.357 15.712C163.485 15.84 163.549 15.992 163.549 16.168V16.72C163.981 16.304 164.437 16 164.917 15.808C165.397 15.616 166.005 15.52 166.741 15.52H167.821C167.997 15.52 168.149 15.584 168.277 15.712C168.405 15.84 168.469 15.992 168.469 16.168V17.752C168.469 17.928 168.405 18.08 168.277 18.208C168.149 18.336 167.997 18.4 167.821 18.4H166.261Z" fill="#090B27"/>
</svg>
